<?xml version="1.0" encoding="UTF-8" standalone="no"?>
<svg
   xmlns:dc="http://purl.org/dc/elements/1.1/"
   xmlns:cc="http://creativecommons.org/ns#"
   xmlns:rdf="http://www.w3.org/1999/02/22-rdf-syntax-ns#"
   xmlns:svg="http://www.w3.org/2000/svg"
   xmlns="http://www.w3.org/2000/svg"
   xmlns:sodipodi="http://sodipodi.sourceforge.net/DTD/sodipodi-0.dtd"
   xmlns:inkscape="http://www.inkscape.org/namespaces/inkscape"
   width="234"
   height="333.00003"
   id="svg2"
   version="1.1"
   inkscape:version="1.0.1 (3bc2e813f5, 2020-09-07)"
   sodipodi:docname="spades_8_alt.svg"
   inkscape:export-filename="png-096-dpi\spades_9_alt.png"
   inkscape:export-xdpi="96"
   inkscape:export-ydpi="96">
  <title
     id="title879">Nine of Spades Playing Card - Alternate Layout</title>
  <defs
     id="defs4" />
  <sodipodi:namedview
     id="base"
     pagecolor="#ffffff"
     bordercolor="#666666"
     borderopacity="1.0"
     inkscape:pageopacity="0.0"
     inkscape:pageshadow="2"
     inkscape:zoom="1.7419355"
     inkscape:cx="101.33742"
     inkscape:cy="147.52053"
     inkscape:document-units="px"
     inkscape:current-layer="layer1"
     showgrid="false"
     inkscape:showpageshadow="false"
     showguides="true"
     inkscape:guide-bbox="true"
     inkscape:snap-global="true"
     inkscape:window-width="1456"
     inkscape:window-height="976"
     inkscape:window-x="1929"
     inkscape:window-y="21"
     inkscape:window-maximized="0"
     fit-margin-top="0"
     fit-margin-left="0"
     fit-margin-right="0"
     fit-margin-bottom="0"
     showborder="false"
     inkscape:document-rotation="0">
    <inkscape:grid
       type="xygrid"
       id="grid3767"
       empspacing="5"
       visible="true"
       enabled="true"
       snapvisiblegridlinesonly="true"
       originx="0"
       originy="5.1666068e-06" />
  </sodipodi:namedview>
  <metadata
     id="metadata7">
    <rdf:RDF>
      <cc:Work
         rdf:about="">
        <dc:format>image/svg+xml</dc:format>
        <dc:type
           rdf:resource="http://purl.org/dc/dcmitype/StillImage" />
        <dc:title>Nine of Spades Playing Card - Alternate Layout</dc:title>
        <cc:license
           rdf:resource="http://creativecommons.org/publicdomain/zero/1.0/" />
        <dc:date>2021-04-13</dc:date>
        <dc:creator>
          <cc:Agent>
            <dc:title>Daniel S. Fowler</dc:title>
          </cc:Agent>
        </dc:creator>
        <dc:rights>
          <cc:Agent>
            <dc:title>Public Domain</dc:title>
          </cc:Agent>
        </dc:rights>
        <dc:publisher>
          <cc:Agent>
            <dc:title>https://tekeye.uk</dc:title>
          </cc:Agent>
        </dc:publisher>
        <dc:language>en-GB</dc:language>
        <dc:subject>
          <rdf:Bag>
            <rdf:li>nine; spades; playing; card; black; white</rdf:li>
          </rdf:Bag>
        </dc:subject>
        <dc:description>A nine of spades playing card.</dc:description>
      </cc:Work>
      <cc:License
         rdf:about="http://creativecommons.org/publicdomain/zero/1.0/">
        <cc:permits
           rdf:resource="http://creativecommons.org/ns#Reproduction" />
        <cc:permits
           rdf:resource="http://creativecommons.org/ns#Distribution" />
        <cc:permits
           rdf:resource="http://creativecommons.org/ns#DerivativeWorks" />
      </cc:License>
    </rdf:RDF>
  </metadata>
  <g
     inkscape:label="Layer 1"
     inkscape:groupmode="layer"
     id="layer1"
     transform="translate(0,-719.36216)">
    <g
       id="g892">
      <rect
         rx="8.9191856"
         ry="8.9457436"
         y="719.74011"
         x="0.37795275"
         height="332.24411"
         width="233.24409"
         id="rect4266"
         style="fill:#ffffff;fill-opacity:1;stroke:#808080;stroke-width:0.755906;stroke-linecap:butt;stroke-linejoin:miter;stroke-miterlimit:4;stroke-dasharray:none;stroke-opacity:1" />
      <path
         sodipodi:nodetypes="cccccccccccccccc"
         inkscape:connector-curvature="0"
         id="path2985-3-2"
         d="m 45.70946,880.82455 c 0,-1.66823 -0.09238,-2.87306 -0.09238,-4.54129 3.448704,0 7.185441,0 10.634123,0 0,-3.96548 0,-4.24593 0,-8.2114 -6.731793,0.2169 -14.01738,0.71685 -20.321702,-2.06098 -4.879854,-2.6782 -6.226348,-8.91265 -5.242485,-14.03806 0.842118,-5.7826 4.056821,-10.91787 8.250581,-14.8729 5.457325,-5.8373 12.417214,-9.77786 19.683448,-12.94846 7.417061,3.22421 14.530402,7.29372 20.056936,13.28494 4.977887,4.67794 8.294558,11.28949 8.192665,18.21177 0.107966,4.99647 -2.987068,10.27644 -8.092155,11.36671 -5.711113,1.58158 -11.491417,1.30097 -17.354233,1.05698 0,3.96547 0,4.24592 0,8.2114 3.448679,0 6.609354,0 10.058061,0 0,1.66823 0.0924,2.87306 0.0924,4.54129 -7.896862,-0.0556 -17.335875,-0.0556 -25.865261,0 z"
         style="fill:#000000;stroke:none;stroke-width:1" />
      <path
         sodipodi:nodetypes="cccccccccccccccc"
         inkscape:connector-curvature="0"
         id="path2985-3-1-7"
         d="m 45.70946,890.89976 c 0,1.66821 -0.09238,2.87305 -0.09238,4.54128 3.448704,0 7.185441,0 10.634123,0 0,3.96548 0,4.24592 0,8.2114 -6.731793,-0.2169 -14.01738,-0.71685 -20.321702,2.06098 -4.879854,2.67821 -6.226348,8.91266 -5.242485,14.03805 0.842118,5.7826 4.056821,10.91788 8.250581,14.8729 5.457325,5.8373 12.417214,9.77787 19.683448,12.94848 7.417061,-3.22422 14.530399,-7.29373 20.056933,-13.28496 4.977887,-4.67792 8.294558,-11.2895 8.192664,-18.21177 0.107967,-4.99645 -2.987067,-10.27643 -8.092154,-11.3667 -5.711113,-1.58159 -11.491414,-1.30096 -17.35423,-1.05698 0,-3.96548 0,-4.24592 0,-8.2114 3.448679,0 6.609354,0 10.058058,0 0,-1.66823 0.0924,-2.87307 0.0924,-4.54128 -7.896858,0.0556 -17.335871,0.0556 -25.865256,0 z"
         style="fill:#000000;stroke:none;stroke-width:1" />
      <path
         sodipodi:nodetypes="cccccccccccccccc"
         inkscape:connector-curvature="0"
         id="path2985-3"
         d="m 162.45012,880.82455 c 0,-1.66823 -0.0924,-2.87306 -0.0924,-4.54129 3.44871,0 7.18544,0 10.63412,0 0,-3.96548 0,-4.24592 0,-8.2114 -6.73179,0.2169 -14.01738,0.71685 -20.3217,-2.06098 -4.87985,-2.6782 -6.22635,-8.91265 -5.24248,-14.03806 0.84212,-5.7826 4.05682,-10.91787 8.25058,-14.8729 5.45732,-5.8373 12.41721,-9.77786 19.68345,-12.94846 7.41706,3.22421 14.53039,7.29372 20.05693,13.28494 4.97789,4.67794 8.29456,11.28949 8.19266,18.21177 0.10797,4.99647 -2.98706,10.27644 -8.09215,11.36671 -5.71111,1.58158 -11.49142,1.30098 -17.35423,1.05698 0,3.96548 0,4.24592 0,8.2114 3.44868,0 6.60935,0 10.05806,0 0,1.66823 0.0924,2.87306 0.0924,4.54129 -7.89685,-0.0556 -17.33587,-0.0556 -25.86525,0 z"
         style="fill:#000000;stroke:none;stroke-width:1" />
      <path
         sodipodi:nodetypes="cccccccccccccccc"
         inkscape:connector-curvature="0"
         id="path2985-3-1"
         d="m 162.45012,814.07624 c 0,-1.66822 -0.0924,-2.87306 -0.0924,-4.54129 3.44871,0 7.18544,0 10.63412,0 0,-3.96547 0,-4.24592 0,-8.2114 -6.73179,0.21691 -14.01738,0.71686 -20.3217,-2.06097 -4.87985,-2.6782 -6.22635,-8.91265 -5.24248,-14.03806 0.84212,-5.7826 4.05682,-10.91787 8.25058,-14.8729 5.45732,-5.8373 12.41721,-9.77786 19.68345,-12.94846 7.41706,3.22421 14.53039,7.29372 20.05693,13.28494 4.97789,4.67794 8.29456,11.28949 8.19266,18.21176 0.10797,4.99647 -2.98706,10.27644 -8.09215,11.36671 -5.71111,1.58158 -11.49142,1.30098 -17.35423,1.05698 0,3.96548 0,4.24593 0,8.2114 3.44868,0 6.60935,0 10.05806,0 0,1.66823 0.0924,2.87307 0.0924,4.54129 -7.89685,-0.0556 -17.33587,-0.0556 -25.86525,0 z"
         style="fill:#000000;stroke:none;stroke-width:1" />
      <path
         sodipodi:nodetypes="cccccccccccccccc"
         inkscape:connector-curvature="0"
         id="path2985-3-3"
         d="m 45.70946,814.07624 c 0,-1.66822 -0.09238,-2.87306 -0.09238,-4.54129 3.448704,0 7.185441,0 10.634123,0 0,-3.96547 0,-4.24592 0,-8.2114 -6.731793,0.21691 -14.01738,0.71686 -20.321702,-2.06097 -4.879854,-2.6782 -6.226348,-8.91265 -5.242485,-14.03806 0.842118,-5.7826 4.056821,-10.91787 8.250581,-14.8729 5.457325,-5.8373 12.417214,-9.77786 19.683448,-12.94846 7.417061,3.22421 14.530399,7.29372 20.056933,13.28493 4.977887,4.67795 8.294558,11.2895 8.192664,18.21177 0.107967,4.99647 -2.987067,10.27644 -8.092154,11.36671 -5.711113,1.58158 -11.491414,1.30098 -17.35423,1.05698 0,3.96548 0,4.24593 0,8.2114 3.448679,0 6.609354,0 10.058058,0 0,1.66823 0.0924,2.87307 0.0924,4.54129 -7.896858,-0.0556 -17.335871,-0.0556 -25.865256,0 z"
         style="fill:#000000;stroke:none;stroke-width:1" />
      <path
         sodipodi:nodetypes="cccccccccccccccc"
         inkscape:connector-curvature="0"
         id="path2985-3-11"
         d="m 12.898825,780.70209 c 0,-0.55607 -0.03079,-0.95768 -0.03079,-1.51376 1.149566,0 2.395148,0 3.544708,0 0,-1.32183 0,-1.41531 0,-2.73713 -2.243931,0.0723 -4.67246,0.23895 -6.7739019,-0.687 -1.6266179,-0.89273 -2.075448,-2.97088 -1.7474947,-4.67935 0.2807048,-1.92753 1.3522742,-3.63929 2.7501936,-4.95763 1.819108,-1.94577 4.139071,-3.25929 6.561151,-4.31616 2.472354,1.07474 4.843466,2.43124 6.685643,4.42831 1.659299,1.55932 2.764852,3.76317 2.730888,6.07059 0.03599,1.66549 -0.995685,3.42549 -2.697384,3.78891 -1.903705,0.52719 -3.830472,0.43366 -5.784745,0.35233 0,1.32182 0,1.4153 0,2.73713 1.14956,0 2.203119,0 3.352688,0 0,0.55608 0.03079,0.95769 0.03079,1.51376 -2.632285,-0.0185 -5.778625,-0.0185 -8.621752,0 z"
         style="fill:#000000;stroke:none;stroke-width:1" />
      <path
         sodipodi:nodetypes="cccccccccccccccc"
         inkscape:connector-curvature="0"
         id="path2985-3-38"
         d="m 45.70946,957.64807 c 0,1.66823 -0.09238,2.87307 -0.09238,4.54131 3.448704,0 7.185441,0 10.634123,0 0,3.96548 0,4.24591 0,8.21139 -6.731793,-0.2169 -14.01738,-0.71685 -20.321702,2.06098 -4.879854,2.67818 -6.226348,8.91263 -5.242485,14.03805 0.842118,5.78261 4.056821,10.91788 8.250581,14.8729 5.457325,5.8373 12.417214,9.7779 19.683448,12.9485 7.417061,-3.2242 14.530399,-7.2937 20.056933,-13.285 4.977887,-4.67793 8.294558,-11.28947 8.192664,-18.21174 0.107967,-4.99646 -2.987067,-10.27644 -8.092154,-11.3667 -5.711113,-1.58159 -11.491414,-1.301 -17.35423,-1.05699 0,-3.96548 0,-4.24591 0,-8.21139 3.448679,0 6.609354,0 10.058058,0 0,-1.66824 0.0924,-2.87308 0.0924,-4.54131 -7.896858,0.0556 -17.335871,0.0556 -25.865256,0 z"
         style="fill:#000000;stroke:none;stroke-width:1" />
      <path
         sodipodi:nodetypes="cccccccccccccccc"
         inkscape:connector-curvature="0"
         id="path2985-3-3-2"
         d="m 162.45011,957.64807 c 0,1.66823 -0.0924,2.87307 -0.0924,4.54131 3.44868,0 7.18542,0 10.6341,0 0,3.96548 0,4.24591 0,8.21139 -6.73179,-0.2169 -14.01738,-0.71685 -20.32169,2.06098 -4.87985,2.67818 -6.22636,8.91263 -5.24247,14.03805 0.8421,5.78261 4.0568,10.91788 8.25058,14.8729 5.45731,5.8373 12.41719,9.7778 19.68346,12.9485 7.41705,-3.2242 14.53038,-7.2937 20.05692,-13.285 4.97789,-4.67793 8.29455,-11.28947 8.19265,-18.21174 0.10799,-4.99649 -2.98705,-10.27644 -8.09213,-11.3667 -5.71113,-1.58159 -11.49143,-1.301 -17.35425,-1.05699 0,-3.96548 0,-4.24591 0,-8.21139 3.44868,0 6.60937,0 10.05805,0 0,-1.66824 0.0924,-2.87308 0.0924,-4.54131 -7.89688,0.0556 -17.3359,0.0556 -25.86528,0 z"
         style="fill:#000000;stroke:none;stroke-width:1" />
      <path
         sodipodi:nodetypes="cccccccccccccccc"
         inkscape:connector-curvature="0"
         id="path2985-3-34-7"
         d="m 162.45009,890.89973 c 0,1.66824 -0.0923,2.87308 -0.0923,4.54131 3.44868,0 7.18542,0 10.6341,0 0,3.96548 0,4.24592 0,8.2114 -6.73179,-0.2169 -14.01738,-0.71685 -20.32169,2.06098 -4.87986,2.67818 -6.22633,8.91266 -5.24248,14.03805 0.84211,5.7826 4.05681,10.91788 8.25059,14.8729 5.45731,5.8373 12.41719,9.77787 19.68345,12.94848 7.41704,-3.22422 14.53038,-7.29373 20.05692,-13.28496 4.97789,-4.67795 8.29455,-11.2895 8.19265,-18.21177 0.10799,-4.99645 -2.98705,-10.27643 -8.09213,-11.3667 -5.71113,-1.58159 -11.49143,-1.30099 -17.35426,-1.05698 0,-3.96548 0,-4.24592 0,-8.2114 3.44869,0 6.60938,0 10.05809,0 0,-1.66823 0.0924,-2.87307 0.0924,-4.54131 -7.89688,0.0556 -17.3359,0.0556 -25.86528,0 z"
         style="fill:#000000;stroke:none;stroke-width:1" />
      <path
         sodipodi:nodetypes="cccccccccccccccc"
         inkscape:connector-curvature="0"
         id="path2985-3-11-7"
         d="m 212.48766,991.02222 c 0,0.55606 -0.0308,0.95768 -0.0308,1.51377 1.14955,0 2.39513,0 3.54471,0 0,1.3218 0,1.41528 0,2.73712 -2.24393,-0.0723 -4.67248,-0.23894 -6.77391,0.687 -1.62662,0.89273 -2.07544,2.97087 -1.7475,4.67939 0.28071,1.9275 1.35228,3.6392 2.75018,4.9576 1.81912,1.9458 4.13909,3.2593 6.56118,4.3161 2.47235,-1.0747 4.84345,-2.4312 6.68563,-4.4283 1.65931,-1.5593 2.76487,-3.7631 2.73088,-6.07056 0.036,-1.6655 -0.99569,-3.42548 -2.69737,-3.78891 -1.90372,-0.52719 -3.83047,-0.43365 -5.78475,-0.35232 0,-1.32184 0,-1.41532 0,-2.73712 1.14955,0 2.20314,0 3.35269,0 0,-0.55609 0.0307,-0.95771 0.0307,-1.51377 -2.63231,0.0186 -5.77863,0.0186 -8.62177,0 z"
         style="fill:#000000;stroke:none;stroke-width:1" />
      <g
         id="text3755-0"
         style="font-style:normal;font-variant:normal;font-weight:bold;font-stretch:normal;font-size:3.77201px;line-height:0%;font-family:'Levenim MT';-inkscape-font-specification:'Sans Bold';letter-spacing:0px;word-spacing:0px;fill:#000000;fill-opacity:1;stroke:none;stroke-width:1"
         transform="matrix(0.97609542,0,0,1.02449,-3.431214e-4,-4.019581e-4)"
         aria-label="8">
        <path
           id="path906"
           style="font-size:38.6135px;line-height:1.25;stroke-width:1"
           d="m 27.272073,729.3654 q 0,4.09137 -2.903553,6.2219 -2.545323,1.86657 -6.768673,1.86657 -4.185641,0 -6.730964,-1.99855 -2.7904278,-2.20595 -2.7904278,-6.27847 0,-4.27991 4.5061638,-6.29731 -3.4691805,-2.20595 -3.4691805,-6.29732 0,-3.60116 2.8281365,-5.3546 2.319072,-1.43293 6.108774,-1.43293 3.450326,0 5.675127,1.67803 2.451051,1.88543 2.451051,5.24148 0,3.84627 -3.450326,6.14648 4.543872,1.92314 4.543872,6.50472 z m -5.863669,-11.93474 q 0,-3.52574 -3.770848,-3.52574 -1.715736,0 -2.733865,0.92386 -1.018129,0.905 -1.018129,2.60188 0,1.64032 1.074691,2.60189 1.01813,0.94271 2.677303,0.94271 1.621465,0 2.696156,-0.96157 1.074692,-0.96156 1.074692,-2.58303 z m 0.88615,11.76505 q 0,-1.96084 -1.338652,-3.0921 -1.263234,-1.07469 -3.261783,-1.07469 -1.960842,0 -3.224076,1.09355 -1.357505,1.15011 -1.357505,3.07324 0,2.0174 1.319797,3.1298 1.225525,1.03699 3.280638,1.03699 2.036258,0 3.261784,-1.05584 1.319797,-1.1124 1.319797,-3.11095 z" />
      </g>
      <g
         id="text3755-2-2"
         style="font-style:normal;font-variant:normal;font-weight:bold;font-stretch:normal;font-size:3.77201px;line-height:0%;font-family:'Levenim MT';-inkscape-font-specification:'Sans Bold';letter-spacing:0px;word-spacing:0px;fill:#000000;fill-opacity:1;stroke:none;stroke-width:1"
         transform="matrix(-0.97855251,0,0,-1.0219176,1.223209e-4,-9.1519056e-5)"
         aria-label="8">
        <path
           id="path909"
           style="font-size:38.7107px;line-height:1.25;stroke-width:1"
           d="m -211.92514,-1002.5239 q 0,4.10168 -2.91086,6.23757 -2.55173,1.87127 -6.78571,1.87127 -4.19618,0 -6.74791,-2.00358 -2.79745,-2.2115 -2.79745,-6.29426 0,-4.2907 4.51751,-6.3132 -3.47792,-2.2115 -3.47792,-6.3131 0,-3.6103 2.83526,-5.3681 2.32491,-1.4366 6.12415,-1.4366 3.45901,0 5.68941,1.6823 2.45722,1.8902 2.45722,5.2547 0,3.8559 -3.45901,6.1619 4.55531,1.928 4.55531,6.5211 z m -5.87843,-11.9648 q 0,-3.5346 -3.78034,-3.5346 -1.72005,0 -2.74074,0.9262 -1.02069,0.9073 -1.02069,2.6084 0,1.6445 1.07739,2.6085 1.02069,0.9451 2.68404,0.9451 1.62555,0 2.70295,-0.964 1.07739,-0.964 1.07739,-2.5896 z m 0.88838,11.7947 q 0,-1.9658 -1.34202,-3.0999 -1.26641,-1.0774 -3.26999,-1.0774 -1.96578,0 -3.23219,1.0963 -1.36092,1.153 -1.36092,3.081 0,2.0225 1.32311,3.13768 1.22862,1.03959 3.2889,1.03959 2.04138,0 3.27,-1.05849 1.32311,-1.11518 1.32311,-3.11878 z" />
      </g>
    </g>
  </g>
</svg>
